<?xml version="1.0" encoding="UTF-8" standalone="no" ?>
<!DOCTYPE svg PUBLIC "-//W3C//DTD SVG 1.1//EN" "http://www.w3.org/Graphics/SVG/1.1/DTD/svg11.dtd">
<svg xmlns="http://www.w3.org/2000/svg" xmlns:xlink="http://www.w3.org/1999/xlink" version="1.1" width="163" height="40" viewBox="0 0 163 40" xml:space="preserve">
<desc>Created with Fabric.js 4.2.0</desc>
<defs>
</defs>
<rect x="0" y="0" width="100%" height="100%" fill="transparent"></rect>
<g transform="matrix(0 0 0 0 0 0)" id="ce035275-894a-41de-9c95-f6b3aebbe82b"  >
</g>
<g transform="matrix(1 0 0 1 81.5 20)" id="cf7a1348-ca4a-4516-ad5e-bd3a760a30a3"  >
<rect style="stroke: none; stroke-width: 1; stroke-dasharray: none; stroke-linecap: butt; stroke-dashoffset: 0; stroke-linejoin: miter; stroke-miterlimit: 4; fill: rgb(255,255,255); fill-rule: nonzero; opacity: 1;" vector-effect="non-scaling-stroke"  x="-81.5" y="-20" rx="0" ry="0" width="163" height="40" />
</g>
<g transform="matrix(0.88 0 0 0.81 66.45 20)"  >
<path style="stroke: none; stroke-width: 1; stroke-dasharray: none; stroke-linecap: butt; stroke-dashoffset: 0; stroke-linejoin: miter; stroke-miterlimit: 4; fill: rgb(73,77,75); fill-rule: nonzero; opacity: 1;" vector-effect="non-scaling-stroke"  transform=" translate(-64.39, -20.6)" d="M 58.208 29 L 58.208 12.2 L 65.288 12.2 C 66.28 12.2 67.168 12.44 67.952 12.92 C 68.752 13.384 69.384 14.024 69.848 14.84 C 70.328 15.64 70.568 16.544 70.568 17.552 C 70.568 18.592 70.328 19.528 69.848 20.36 C 69.384 21.176 68.752 21.832 67.952 22.328 C 67.168 22.808 66.28 23.048 65.288 23.048 L 61.664 23.048 L 61.664 29 L 58.208 29 Z M 61.64 19.904 L 64.928 19.904 C 65.52 19.904 66.016 19.688 66.416 19.256 C 66.832 18.808 67.04 18.256 67.04 17.6 C 67.04 16.944 66.832 16.408 66.416 15.992 C 66.016 15.56 65.52 15.344 64.928 15.344 L 61.64 15.344 L 61.64 19.904 Z" stroke-linecap="round" />
</g>
<g transform="matrix(0.88 0 0 0.81 79.25 22.24)"  >
<path style="stroke: none; stroke-width: 1; stroke-dasharray: none; stroke-linecap: butt; stroke-dashoffset: 0; stroke-linejoin: miter; stroke-miterlimit: 4; fill: rgb(73,77,75); fill-rule: nonzero; opacity: 1;" vector-effect="non-scaling-stroke"  transform=" translate(-78.94, -22.65)" d="M 78.959 29.24 C 77.663 29.24 76.511 28.96 75.503 28.4 C 74.495 27.824 73.703 27.04 73.127 26.048 C 72.551 25.056 72.263 23.92 72.263 22.64 C 72.263 21.376 72.551 20.248 73.127 19.256 C 73.703 18.264 74.495 17.488 75.503 16.928 C 76.511 16.352 77.663 16.064 78.959 16.064 C 80.223 16.064 81.359 16.352 82.367 16.928 C 83.375 17.488 84.167 18.264 84.743 19.256 C 85.319 20.248 85.607 21.376 85.607 22.64 C 85.607 23.92 85.319 25.056 84.743 26.048 C 84.167 27.04 83.375 27.824 82.367 28.4 C 81.359 28.96 80.223 29.24 78.959 29.24 Z M 78.959 26.384 C 79.599 26.384 80.175 26.224 80.687 25.904 C 81.199 25.568 81.591 25.12 81.863 24.56 C 82.151 24 82.295 23.36 82.295 22.64 C 82.295 21.92 82.151 21.28 81.863 20.72 C 81.591 20.16 81.199 19.72 80.687 19.4 C 80.175 19.08 79.599 18.92 78.959 18.92 C 78.303 18.92 77.719 19.08 77.207 19.4 C 76.695 19.72 76.295 20.16 76.007 20.72 C 75.719 21.28 75.575 21.92 75.575 22.64 C 75.575 23.36 75.719 24 76.007 24.56 C 76.295 25.12 76.695 25.568 77.207 25.904 C 77.719 26.224 78.303 26.384 78.959 26.384 Z" stroke-linecap="round" />
</g>
<g transform="matrix(0.88 0 0 0.81 92.4 20.28)"  >
<path style="stroke: none; stroke-width: 1; stroke-dasharray: none; stroke-linecap: butt; stroke-dashoffset: 0; stroke-linejoin: miter; stroke-miterlimit: 4; fill: rgb(73,77,75); fill-rule: nonzero; opacity: 1;" vector-effect="non-scaling-stroke"  transform=" translate(-93.88, -20.24)" d="M 93.2122 29.24 C 92.0922 29.24 91.0922 28.96 90.2122 28.4 C 89.3322 27.824 88.6362 27.04 88.1242 26.048 C 87.6282 25.056 87.3802 23.928 87.3802 22.664 C 87.3802 21.384 87.6282 20.248 88.1242 19.256 C 88.6362 18.264 89.3322 17.488 90.2122 16.928 C 91.0922 16.352 92.0922 16.064 93.2122 16.064 C 93.9802 16.064 94.7082 16.216 95.3962 16.52 C 96.1002 16.824 96.6682 17.216 97.1002 17.696 L 97.1002 11.24 L 100.388 11.24 L 100.388 29 L 97.2682 29 L 97.2202 27.488 C 96.8042 27.984 96.2362 28.4 95.5162 28.736 C 94.7962 29.072 94.0282 29.24 93.2122 29.24 Z M 93.9322 26.504 C 94.9082 26.504 95.7002 26.152 96.3082 25.448 C 96.9162 24.728 97.2202 23.8 97.2202 22.664 C 97.2202 21.512 96.9162 20.584 96.3082 19.88 C 95.7002 19.16 94.9082 18.8 93.9322 18.8 C 92.9562 18.8 92.1642 19.16 91.5562 19.88 C 90.9482 20.584 90.6442 21.512 90.6442 22.664 C 90.6442 23.8 90.9482 24.728 91.5562 25.448 C 92.1642 26.152 92.9562 26.504 93.9322 26.504 Z" stroke-linecap="round" />
</g>
<g transform="matrix(0.88 0 0 0.81 27.39 17.07)"  >
<path style="stroke: none; stroke-width: 1; stroke-dasharray: none; stroke-linecap: butt; stroke-dashoffset: 0; stroke-linejoin: miter; stroke-miterlimit: 4; fill: rgb(73,77,75); fill-rule: nonzero; opacity: 1;" vector-effect="non-scaling-stroke"  transform=" translate(-20, -16.28)" d="M 38.125 19.8876 C 38.1494 23.0542 37.3398 26.1714 35.7774 28.9259 C 35.575 29.2837 35.3607 29.6337 35.1344 29.9759 C 35.0225 30.1498 34.8772 30.2998 34.7069 30.4171 C 34.5367 30.5345 34.3448 30.6169 34.1424 30.6595 C 33.94 30.7021 33.7312 30.7041 33.5281 30.6655 C 33.3249 30.6268 33.1315 30.5482 32.9589 30.4341 C 32.7864 30.3201 32.6382 30.173 32.523 30.0013 C 32.4077 29.8296 32.3277 29.6367 32.2875 29.4338 C 32.2474 29.231 32.2479 29.0222 32.2891 28.8195 C 32.3303 28.6168 32.4113 28.4244 32.5274 28.2532 C 34.0185 25.9897 34.8685 23.3644 34.987 20.6564 C 35.1054 17.9484 34.4879 15.2589 33.2001 12.8738 C 31.9123 10.4887 30.0022 8.49708 27.673 7.11069 C 25.3438 5.7243 22.6825 4.99493 19.9719 5.0001 C 14.7618 5.01026 10.1422 7.74541 7.45706 11.8321 C 5.85189 14.2703 4.99772 17.1259 5.0005 20.045 C 5.00327 22.9641 5.86288 25.8182 7.47269 28.2532 C 7.70092 28.5991 7.78239 29.0216 7.69917 29.4275 C 7.61595 29.8335 7.37486 30.1898 7.02894 30.4181 C 6.68302 30.6463 6.2606 30.7278 5.85461 30.6445 C 5.44863 30.5613 5.09233 30.3202 4.8641 29.9743 C 3.0791 27.2655 2.05381 24.1272 1.89521 20.887 C 1.73662 17.6468 2.45053 14.4235 3.96245 11.5533 C 5.47437 8.68306 7.72889 6.27121 10.4907 4.56941 C 13.2526 2.86761 16.4206 1.93822 19.6641 1.87822 C 19.7782 1.87588 19.8914 1.8751 20.0047 1.8751 C 24.7949 1.86523 29.3933 3.75637 32.7905 7.13341 C 36.1878 10.5105 38.1063 15.0975 38.125 19.8876 Z" stroke-linecap="round" />
</g>
<g transform="matrix(0.88 0 0 0.81 20.37 27.81)"  >
<path style="stroke: none; stroke-width: 1; stroke-dasharray: none; stroke-linecap: butt; stroke-dashoffset: 0; stroke-linejoin: miter; stroke-miterlimit: 4; fill: rgb(4,211,97); fill-rule: nonzero; opacity: 1;" vector-effect="non-scaling-stroke"  transform=" translate(-12.01, -29.53)" d="M 9.06588 22.7944 L 11.8978 36.8819 C 12.0678 37.7276 12.8911 38.2753 13.7368 38.1053 C 14.5825 37.9353 15.1303 37.1119 14.9603 36.2663 L 12.1284 22.1788 C 11.9584 21.3331 11.135 20.7853 10.2893 20.9553 C 9.44363 21.1253 8.89588 21.9487 9.06588 22.7944 Z" stroke-linecap="round" />
</g>
<g transform="matrix(0.88 0 0 0.81 17.2 28.14)"  >
<path style="stroke: none; stroke-width: 1; stroke-dasharray: none; stroke-linecap: butt; stroke-dashoffset: 0; stroke-linejoin: miter; stroke-miterlimit: 4; fill: rgb(73,77,75); fill-rule: nonzero; opacity: 1;" vector-effect="non-scaling-stroke"  transform=" translate(-8.42, -29.94)" d="M 11.8438 36.5641 L 11.1258 36.7086 C 10.059 36.9234 8.95038 36.7225 8.02677 36.147 C 7.10316 35.5715 6.43432 34.6648 6.15706 33.6125 C 6.13597 33.5313 6.11644 33.45 6.10003 33.3672 L 5.07112 28.2555 C 4.84815 27.1459 5.07485 25.9931 5.70141 25.0506 C 6.32796 24.108 7.3031 23.4528 8.41253 23.2289 L 9.1305 23.0844 L 10.3899 29.3406 L 11.8438 36.5641 Z" stroke-linecap="round" />
</g>
<g transform="matrix(0.88 0 0 0.81 17.71 30.68)"  >
<path style="stroke: none; stroke-width: 1; stroke-dasharray: none; stroke-linecap: butt; stroke-dashoffset: 0; stroke-linejoin: miter; stroke-miterlimit: 4; fill: rgb(73,77,75); fill-rule: nonzero; opacity: 1;" vector-effect="non-scaling-stroke"  transform=" translate(-9, -33.07)" d="M 11.8438 36.5641 L 11.1259 36.7086 C 10.059 36.9234 8.95043 36.7225 8.02682 36.147 C 7.1032 35.5715 6.43437 34.6649 6.1571 33.6125 C 7.67448 32.2981 9.08951 30.87 10.3899 29.3407 L 11.8438 36.5641 Z" stroke-linecap="round" />
</g>
<g transform="matrix(0.88 0 0 0.81 39.93 25.63)"  >
<path style="stroke: none; stroke-width: 1; stroke-dasharray: none; stroke-linecap: butt; stroke-dashoffset: 0; stroke-linejoin: miter; stroke-miterlimit: 4; fill: rgb(73,77,75); fill-rule: nonzero; opacity: 1;" vector-effect="non-scaling-stroke"  transform=" translate(-34.24, -26.83)" d="M 36.1477 27.0875 L 35.7774 28.9258 C 35.575 29.2836 35.3607 29.6336 35.1344 29.9758 C 35.0225 30.1497 34.8772 30.2997 34.7069 30.4171 C 34.5366 30.5344 34.3448 30.6168 34.1424 30.6594 C 33.94 30.702 33.7312 30.7041 33.5281 30.6654 C 33.3249 30.6267 33.1315 30.5481 32.9589 30.4341 C 32.7864 30.3201 32.6382 30.1729 32.5229 30.0012 C 32.4077 29.8295 32.3277 29.6366 32.2875 29.4338 C 32.2474 29.2309 32.2479 29.0221 32.2891 28.8194 C 32.3303 28.6167 32.4112 28.4243 32.5274 28.2531 C 33.5865 26.6502 34.3258 24.8577 34.7047 22.9742 C 35.2927 23.4668 35.7371 24.1089 35.991 24.8327 C 36.245 25.5566 36.2991 26.3355 36.1477 27.0875 Z" stroke-linecap="round" />
</g>
<g transform="matrix(0.88 0 0 0.81 27.16 9.43)"  >
<path style="stroke: none; stroke-width: 1; stroke-dasharray: none; stroke-linecap: butt; stroke-dashoffset: 0; stroke-linejoin: miter; stroke-miterlimit: 4; fill: rgb(130,87,229); fill-rule: nonzero; opacity: 1;" vector-effect="non-scaling-stroke"  transform=" translate(-19.74, -6.85)" d="M 34.2953 8.82971 L 32.0539 11.0711 C 30.6573 9.1825 28.836 7.64891 26.7371 6.59426 C 24.6383 5.53962 22.3208 4.99349 19.9719 5.00002 C 14.7617 5.01017 10.1422 7.74533 7.45703 11.832 L 5.18359 9.55861 C 6.82274 7.22938 8.98843 5.31984 11.5046 3.98527 C 14.0207 2.65069 16.8163 1.92875 19.6641 1.87814 C 19.7781 1.8758 19.8914 1.87502 20.0047 1.87502 C 22.7591 1.86885 25.4786 2.49223 27.9553 3.69756 C 30.4321 4.9029 32.6006 6.6583 34.2953 8.82971 Z" stroke-linecap="round" />
</g>
<g transform="matrix(0.88 0 0 0.81 34.39 27.79)"  >
<path style="stroke: none; stroke-width: 1; stroke-dasharray: none; stroke-linecap: butt; stroke-dashoffset: 0; stroke-linejoin: miter; stroke-miterlimit: 4; fill: rgb(4,211,97); fill-rule: nonzero; opacity: 1;" vector-effect="non-scaling-stroke"  transform=" translate(-27.96, -29.52)" d="M 27.8464 22.1635 L 25.0145 36.251 C 24.8445 37.0967 25.3922 37.9201 26.2379 38.0901 C 27.0836 38.2601 27.907 37.7123 28.077 36.8666 L 30.9089 22.7791 C 31.0789 21.9335 30.5311 21.1101 29.6854 20.9401 C 28.8397 20.7701 28.0164 21.3178 27.8464 22.1635 Z" stroke-linecap="round" />
</g>
<g transform="matrix(0.88 0 0 0.81 37.59 28.14)"  >
<path style="stroke: none; stroke-width: 1; stroke-dasharray: none; stroke-linecap: butt; stroke-dashoffset: 0; stroke-linejoin: miter; stroke-miterlimit: 4; fill: rgb(73,77,75); fill-rule: nonzero; opacity: 1;" vector-effect="non-scaling-stroke"  transform=" translate(-31.58, -29.94)" d="M 34.9289 28.2555 L 33.9 33.3672 C 33.6766 34.4767 33.0216 35.4521 32.0791 36.0787 C 31.1366 36.7054 29.9838 36.9319 28.8742 36.7086 L 28.1562 36.5641 L 28.9 32.8711 L 30.8695 23.0844 L 31.5875 23.2289 C 32.6968 23.4531 33.672 24.108 34.2992 25.05 C 34.3856 25.1799 34.4646 25.3144 34.5359 25.4531 C 34.9817 26.3154 35.1203 27.3038 34.9289 28.2555 Z" stroke-linecap="round" />
</g>
<g transform="matrix(0.88 0 0 0.81 37.59 29.09)"  >
<path style="stroke: none; stroke-width: 1; stroke-dasharray: none; stroke-linecap: butt; stroke-dashoffset: 0; stroke-linejoin: miter; stroke-miterlimit: 4; fill: rgb(73,77,75); fill-rule: nonzero; opacity: 1;" vector-effect="non-scaling-stroke"  transform=" translate(-31.58, -31.12)" d="M 34.9289 28.2555 L 33.9 33.3672 C 33.6766 34.4768 33.0216 35.4521 32.0791 36.0788 C 31.1366 36.7054 29.9838 36.932 28.8742 36.7086 L 28.1562 36.5641 L 28.9 32.8711 C 31.0403 30.6086 32.9299 28.1215 34.5359 25.4531 C 34.9817 26.3154 35.1203 27.3039 34.9289 28.2555 Z" stroke-linecap="round" />
</g>
<g transform="matrix(1 0 0 0.86 123.28 21.53)" style="" id="abb677ee-1d26-49b5-a87a-e1134eca6c2f"  >
		<text xml:space="preserve" font-family="Roboto" font-size="22" font-style="normal" font-weight="400" style="stroke: none; stroke-width: 1; stroke-dasharray: none; stroke-linecap: butt; stroke-dashoffset: 0; stroke-linejoin: miter; stroke-miterlimit: 4; fill: rgb(4,211,97); fill-rule: nonzero; opacity: 1; white-space: pre;" ><tspan x="-22.23" y="6.91" >L</tspan><tspan x="-7.64" y="6.91" >i</tspan><tspan x="0.45" y="6.91" >f</tspan><tspan x="10.58" y="6.91" >e</tspan></text>
</g>
</svg>